<svg xmlns="http://www.w3.org/2000/svg" xmlns:xlink="http://www.w3.org/1999/xlink" width="253" height="321.5" viewBox="0 0 253 321.5">
  <defs>
    <filter id="Path_325679" x="0" y="225.5" width="253" height="96" filterUnits="userSpaceOnUse">
      <feOffset dx="3" dy="3" input="SourceAlpha"/>
      <feGaussianBlur stdDeviation="3" result="blur"/>
      <feFlood flood-opacity="0.161"/>
      <feComposite operator="in" in2="blur"/>
      <feComposite in="SourceGraphic"/>
    </filter>
    <clipPath id="clip-path">
      <path id="Path_325679-2" data-name="Path 325679" d="M0,0H235V30c0,26.51-17.236,48-38.5,48H38.5C17.236,78,0,56.51,0,30Z" fill="#fff"/>
    </clipPath>
    <linearGradient id="linear-gradient" y1="0.5" x2="0.994" y2="0.5" gradientUnits="objectBoundingBox">
      <stop offset="0"/>
      <stop offset="0.533" stop-color="#6b6b6b"/>
      <stop offset="1"/>
    </linearGradient>
  </defs>
  <g id="Group_172362" data-name="Group 172362" transform="translate(-16963 -9117.5)">
    <g id="Group_147493" data-name="Group 147493" transform="translate(361 27)">
      <g id="Group_147492" data-name="Group 147492">
        <g transform="matrix(1, 0, 0, 1, 16602, 9090.5)" filter="url(#Path_325679)">
          <path id="Path_325679-3" data-name="Path 325679" d="M0,0H235V30c0,26.51-17.236,48-38.5,48H38.5C17.236,78,0,56.51,0,30Z" transform="translate(6 231.5)" fill="#fff"/>
        </g>
        <path id="Rectangle_38668_-_Outline" data-name="Rectangle 38668 - Outline" d="M38.5,6.056c-18.132,0-32.884,15.913-32.884,35.472V266.472c0,19.559,14.752,35.472,32.884,35.472h158c18.132,0,32.884-15.913,32.884-35.472V41.528c0-19.559-14.752-35.472-32.884-35.472H38.5M38.5,0h158C217.764,0,235,18.593,235,41.528V266.472C235,289.407,217.764,308,196.5,308H38.5C17.236,308,0,289.407,0,266.472V41.528C0,18.593,17.236,0,38.5,0Z" transform="translate(16608 9092)" fill="none"/>
        <g id="Mask_Group_18038" data-name="Mask Group 18038" transform="translate(16608 9322)" clip-path="url(#clip-path)">
          <g id="Group_141590" data-name="Group 141590" transform="translate(-58.376 -123.302)">
            <g id="Group_141587" data-name="Group 141587" transform="translate(0 143.498) rotate(-45)">
              <g id="Group_141583" data-name="Group 141583" transform="translate(1.035 0)">
                <path id="Path_325672" data-name="Path 325672" d="M0,4.9,201.347,0" transform="translate(0.428)" fill="none" stroke="#c1c4c6" stroke-width="1"/>
                <path id="Path_325673" data-name="Path 325673" d="M0,4.9,201.347,0" transform="translate(0.285 5.857)" fill="none" stroke="#c1c4c6" stroke-width="1"/>
                <path id="Path_325674" data-name="Path 325674" d="M0,4.9,201.347,0" transform="translate(0.143 11.715)" fill="none" stroke="#c1c4c6" stroke-width="1"/>
                <path id="Path_325675" data-name="Path 325675" d="M0,4.9,201.347,0" transform="translate(0 17.572)" fill="none" stroke="#c1c4c6" stroke-width="1"/>
              </g>
              <g id="Group_141584" data-name="Group 141584" transform="translate(0 22.465)">
                <path id="Path_325672-2" data-name="Path 325672" d="M0,4.9,201.347,0" transform="translate(0.428)" fill="none" stroke="#c1c4c6" stroke-width="1"/>
                <path id="Path_325673-2" data-name="Path 325673" d="M0,4.9,201.347,0" transform="translate(0.285 5.857)" fill="none" stroke="#c1c4c6" stroke-width="1"/>
                <path id="Path_325674-2" data-name="Path 325674" d="M0,4.9,201.347,0" transform="translate(0.143 11.715)" fill="none" stroke="#c1c4c6" stroke-width="1"/>
                <path id="Path_325675-2" data-name="Path 325675" d="M0,4.9,201.347,0" transform="translate(0 17.572)" fill="none" stroke="#c1c4c6" stroke-width="1"/>
              </g>
              <g id="Group_141585" data-name="Group 141585" transform="translate(1.162 44.877)">
                <path id="Path_325672-3" data-name="Path 325672" d="M0,4.9,201.347,0" transform="translate(0.428)" fill="none" stroke="#c1c4c6" stroke-width="1"/>
                <path id="Path_325673-3" data-name="Path 325673" d="M0,4.9,201.347,0" transform="translate(0.285 5.857)" fill="none" stroke="#c1c4c6" stroke-width="1"/>
                <path id="Path_325674-3" data-name="Path 325674" d="M0,4.9,201.347,0" transform="translate(0.143 11.715)" fill="none" stroke="#c1c4c6" stroke-width="1"/>
                <path id="Path_325675-3" data-name="Path 325675" d="M0,4.9,201.347,0" transform="translate(0 17.572)" fill="none" stroke="#c1c4c6" stroke-width="1"/>
              </g>
              <g id="Group_141586" data-name="Group 141586" transform="translate(0.615 67.33)">
                <path id="Path_325672-4" data-name="Path 325672" d="M0,4.9,201.347,0" transform="translate(0.428)" fill="none" stroke="#c1c4c6" stroke-width="1"/>
                <path id="Path_325673-4" data-name="Path 325673" d="M0,4.9,201.347,0" transform="translate(0.285 5.857)" fill="none" stroke="#c1c4c6" stroke-width="1"/>
                <path id="Path_325674-4" data-name="Path 325674" d="M0,4.9,201.347,0" transform="translate(0.143 11.715)" fill="none" stroke="#c1c4c6" stroke-width="1"/>
                <path id="Path_325675-4" data-name="Path 325675" d="M0,4.9,201.347,0" transform="translate(0 17.572)" fill="none" stroke="#c1c4c6" stroke-width="1"/>
              </g>
            </g>
            <g id="Group_141588" data-name="Group 141588" transform="translate(57.326 213.022) rotate(-45)">
              <g id="Group_141583-2" data-name="Group 141583" transform="translate(1.035 0)">
                <path id="Path_325672-5" data-name="Path 325672" d="M0,6,246.276,0" transform="translate(0.428)" fill="none" stroke="#c1c4c6" stroke-width="1"/>
                <path id="Path_325673-5" data-name="Path 325673" d="M0,6,246.276,0" transform="translate(0.285 5.857)" fill="none" stroke="#c1c4c6" stroke-width="1"/>
                <path id="Path_325674-5" data-name="Path 325674" d="M0,6,246.276,0" transform="translate(0.143 11.715)" fill="none" stroke="#c1c4c6" stroke-width="1"/>
                <path id="Path_325675-5" data-name="Path 325675" d="M0,6,246.276,0" transform="translate(0 17.572)" fill="none" stroke="#c1c4c6" stroke-width="1"/>
              </g>
              <g id="Group_141584-2" data-name="Group 141584" transform="translate(0 22.465)">
                <path id="Path_325672-6" data-name="Path 325672" d="M0,6,246.276,0" transform="translate(0.428)" fill="none" stroke="#c1c4c6" stroke-width="1"/>
                <path id="Path_325673-6" data-name="Path 325673" d="M0,6,246.276,0" transform="translate(0.285 5.857)" fill="none" stroke="#c1c4c6" stroke-width="1"/>
                <path id="Path_325674-6" data-name="Path 325674" d="M0,6,246.276,0" transform="translate(0.143 11.715)" fill="none" stroke="#c1c4c6" stroke-width="1"/>
                <path id="Path_325675-6" data-name="Path 325675" d="M0,6,246.276,0" transform="translate(0 17.572)" fill="none" stroke="#c1c4c6" stroke-width="1"/>
              </g>
              <g id="Group_141585-2" data-name="Group 141585" transform="translate(1.162 44.877)">
                <path id="Path_325672-7" data-name="Path 325672" d="M0,6,246.276,0" transform="translate(0.428)" fill="none" stroke="#c1c4c6" stroke-width="1"/>
                <path id="Path_325673-7" data-name="Path 325673" d="M0,6,246.276,0" transform="translate(0.285 5.857)" fill="none" stroke="#c1c4c6" stroke-width="1"/>
                <path id="Path_325674-7" data-name="Path 325674" d="M0,6,246.276,0" transform="translate(0.143 11.715)" fill="none" stroke="#c1c4c6" stroke-width="1"/>
                <path id="Path_325675-7" data-name="Path 325675" d="M0,6,246.276,0" transform="translate(0 17.572)" fill="none" stroke="#c1c4c6" stroke-width="1"/>
              </g>
              <g id="Group_141586-2" data-name="Group 141586" transform="translate(0.615 67.33)">
                <path id="Path_325672-8" data-name="Path 325672" d="M0,6,246.276,0" transform="translate(0.428)" fill="none" stroke="#c1c4c6" stroke-width="1"/>
                <path id="Path_325673-8" data-name="Path 325673" d="M0,6,246.276,0" transform="translate(0.285 5.857)" fill="none" stroke="#c1c4c6" stroke-width="1"/>
                <path id="Path_325674-8" data-name="Path 325674" d="M0,6,246.276,0" transform="translate(0.143 11.715)" fill="none" stroke="#c1c4c6" stroke-width="1"/>
                <path id="Path_325675-8" data-name="Path 325675" d="M0,6,246.276,0" transform="translate(0 17.572)" fill="none" stroke="#c1c4c6" stroke-width="1"/>
              </g>
            </g>
            <g id="Group_141589" data-name="Group 141589" transform="translate(148.641 249.796) rotate(-45)">
              <g id="Group_141583-3" data-name="Group 141583" transform="translate(1.035 0)">
                <path id="Path_325672-9" data-name="Path 325672" d="M0,4.9,201.347,0" transform="translate(0.428)" fill="none" stroke="#c1c4c6" stroke-width="1"/>
                <path id="Path_325673-9" data-name="Path 325673" d="M0,4.9,201.347,0" transform="translate(0.285 5.857)" fill="none" stroke="#c1c4c6" stroke-width="1"/>
                <path id="Path_325674-9" data-name="Path 325674" d="M0,4.9,201.347,0" transform="translate(0.143 11.715)" fill="none" stroke="#c1c4c6" stroke-width="1"/>
                <path id="Path_325675-9" data-name="Path 325675" d="M0,4.9,201.347,0" transform="translate(0 17.572)" fill="none" stroke="#c1c4c6" stroke-width="1"/>
              </g>
              <g id="Group_141584-3" data-name="Group 141584" transform="translate(0 22.465)">
                <path id="Path_325672-10" data-name="Path 325672" d="M0,4.9,201.347,0" transform="translate(0.428)" fill="none" stroke="#c1c4c6" stroke-width="1"/>
                <path id="Path_325673-10" data-name="Path 325673" d="M0,4.9,201.347,0" transform="translate(0.285 5.857)" fill="none" stroke="#c1c4c6" stroke-width="1"/>
                <path id="Path_325674-10" data-name="Path 325674" d="M0,4.9,201.347,0" transform="translate(0.143 11.715)" fill="none" stroke="#c1c4c6" stroke-width="1"/>
                <path id="Path_325675-10" data-name="Path 325675" d="M0,4.9,201.347,0" transform="translate(0 17.572)" fill="none" stroke="#c1c4c6" stroke-width="1"/>
              </g>
              <g id="Group_141585-3" data-name="Group 141585" transform="translate(1.086 46.216)">
                <path id="Path_325672-11" data-name="Path 325672" d="M0,4.9,201.347,0" transform="translate(0.428)" fill="none" stroke="#c1c4c6" stroke-width="1"/>
                <path id="Path_325673-11" data-name="Path 325673" d="M0,4.9,201.347,0" transform="translate(0.285 5.857)" fill="none" stroke="#c1c4c6" stroke-width="1"/>
                <path id="Path_325674-11" data-name="Path 325674" d="M0,4.9,201.347,0" transform="translate(0.143 11.715)" fill="none" stroke="#c1c4c6" stroke-width="1"/>
                <path id="Path_325675-11" data-name="Path 325675" d="M0,4.9,201.347,0" transform="translate(0 17.572)" fill="none" stroke="#c1c4c6" stroke-width="1"/>
              </g>
              <g id="Group_141586-3" data-name="Group 141586" transform="translate(0.464 70.008)">
                <path id="Path_325672-12" data-name="Path 325672" d="M0,4.9,201.347,0" transform="translate(0.428)" fill="none" stroke="#c1c4c6" stroke-width="1"/>
                <path id="Path_325673-12" data-name="Path 325673" d="M0,4.9,201.347,0" transform="translate(0.285 5.857)" fill="none" stroke="#c1c4c6" stroke-width="1"/>
                <path id="Path_325674-12" data-name="Path 325674" d="M0,4.9,201.347,0" transform="translate(0.143 11.715)" fill="none" stroke="#c1c4c6" stroke-width="1"/>
                <path id="Path_325675-12" data-name="Path 325675" d="M0,4.9,201.347,0" transform="translate(0 17.572)" fill="none" stroke="#c1c4c6" stroke-width="1"/>
              </g>
            </g>
          </g>
        </g>
      </g>
      <rect id="Rectangle_38668" data-name="Rectangle 38668" width="235" height="9" transform="translate(16608 9321)" fill="url(#linear-gradient)"/>
    </g>
    <path id="Path_325985" data-name="Path 325985" d="M38.5,0h158C217.763,0,235,18.593,235,41.528V266.472C235,289.407,217.763,308,196.5,308H38.5C17.236,308,0,289.407,0,266.472V41.528C0,18.593,17.236,0,38.5,0Z" transform="translate(16969 9119)" fill="none" stroke="#fec72e" stroke-width="3"/>
  </g>
</svg>
